<svg width="24" height="24" viewBox="0 0 24 24" fill="none"  xmlns="http://www.w3.org/2000/svg">
<g clip-path="url(#clip0_109_35)">
<path d="M7.5 4.5H6.75C5.50736 4.5 4.5 5.50736 4.5 6.75V14.25C4.5 15.4926 5.50736 16.5 6.75 16.5H14.25C15.4926 16.5 16.5 15.4926 16.5 14.25V6.75C16.5 5.50736 15.4926 4.5 14.25 4.5H13.5M7.5 8.25L10.5 11.25M10.5 11.25L13.5 8.25M10.5 11.25L10.5 -1.5M16.5 7.5H17.25C18.4926 7.5 19.5 8.50736 19.5 9.75V17.25C19.5 18.4926 18.4926 19.5 17.25 19.5H9.75C8.50736 19.5 7.5 18.4926 7.5 17.25V16.5" stroke="currentColor" stroke-width="2" stroke-linecap="round" stroke-linejoin="round"/>
</g>
<defs>
<clipPath id="clip0_109_35">
<rect width="24" height="24" fill="white"/>
</clipPath>
</defs>
</svg>
